<?xml version="1.0" encoding="UTF-8" standalone="no"?>
<!-- Created with Inkscape (http://www.inkscape.org/) -->

<svg
   version="1.1"
   id="svg16189"
   width="800"
   height="800"
   viewBox="0 0 800 800"
   sodipodi:docname="prisoner-publicdomainvectors.org.svg"
   inkscape:version="1.2 (dc2aedaf03, 2022-05-15)"
   xmlns:inkscape="http://www.inkscape.org/namespaces/inkscape"
   xmlns:sodipodi="http://sodipodi.sourceforge.net/DTD/sodipodi-0.dtd"
   xmlns="http://www.w3.org/2000/svg"
   xmlns:svg="http://www.w3.org/2000/svg">
  <defs
     id="defs16193">
    <clipPath
       clipPathUnits="userSpaceOnUse"
       id="clipPath16205">
      <path
         d="M 0,600 H 600 V 0 H 0 Z"
         id="path16203" />
    </clipPath>
  </defs>
  <sodipodi:namedview
     id="namedview16191"
     pagecolor="#ffffff"
     bordercolor="#000000"
     borderopacity="0.25"
     inkscape:showpageshadow="2"
     inkscape:pageopacity="0.0"
     inkscape:pagecheckerboard="0"
     inkscape:deskcolor="#d1d1d1"
     showgrid="false"
     inkscape:zoom="1.04625"
     inkscape:cx="400"
     inkscape:cy="400.4779"
     inkscape:window-width="1920"
     inkscape:window-height="1017"
     inkscape:window-x="-8"
     inkscape:window-y="-8"
     inkscape:window-maximized="1"
     inkscape:current-layer="g16197">
    <inkscape:page
       x="0"
       y="0"
       id="page16195"
       width="800"
       height="800" />
  </sodipodi:namedview>
  <g
     id="g16197"
     inkscape:groupmode="layer"
     inkscape:label="Page 1"
     transform="matrix(1.3333333,0,0,-1.3333333,0,800)">
    <g
       id="g16199">
      <g
         id="g16201"
         clip-path="url(#clipPath16205)">
        <g
           id="g16207"
           transform="translate(379.5947,118.7031)">
          <path
             d="m 0,0 c 4.009,56.628 2.907,111.155 -13.18,159.519 -19.245,-0.517 -38.489,-1.034 -57.734,-1.55 C -50.947,103.594 -46.638,51.795 -51.774,1.548 -34.517,1.032 -17.258,0.515 0,0 m -152.937,0 c -4.01,56.628 -2.909,111.155 13.178,159.519 19.245,-0.517 38.491,-1.034 57.736,-1.55 C -101.991,103.594 -106.3,51.795 -101.164,1.548 -118.421,1.032 -135.68,0.515 -152.937,0"
             style="fill:#f2541b;fill-opacity:1;fill-rule:evenodd;stroke:none"
             id="path16209" />
        </g>
        <g
           id="g16211"
           transform="translate(286.8838,470.7466)">
          <path
             d="m 0,0 h 32.484 c 38.486,0 69.974,-31.487 69.974,-69.972 V -205.75 H -69.973 V -69.972 C -69.973,-31.487 -38.486,0 0,0"
             style="fill:#f2541b;fill-opacity:1;fill-rule:evenodd;stroke:none"
             id="path16213" />
        </g>
        <g
           id="g16215"
           transform="translate(264.3916,477.4102)">
          <path
             d="m 0,0 h 76.637 c 46.272,0 84.132,-37.859 84.132,-84.132 v -84.133 H 98.71 v 99.544 c 0,33.215 -27.177,60.391 -60.393,60.391 -33.215,0 -60.391,-27.176 -60.391,-60.391 v -99.544 h -62.059 v 84.133 C -84.133,-37.859 -46.274,0 0,0"
             style="fill:#f57a32;fill-opacity:1;fill-rule:evenodd;stroke:none"
             id="path16217" />
        </g>
        <path
           d="m 229.823,230.01 h 144.525 v 34.986 H 229.823 Z"
           style="fill:#f9efe7;fill-opacity:1;fill-rule:evenodd;stroke:none"
           id="path16219" />
        <path
           d="m 229.823,255.416 h 144.525 v 9.58 H 229.823 Z"
           style="fill:#eddfd4;fill-opacity:1;fill-rule:evenodd;stroke:none"
           id="path16221" />
        <g
           id="g16223"
           transform="translate(261.418,254.4111)">
          <path
             d="m 0,0 11.239,-3.167 c 0.817,-0.23 1.467,-0.775 1.856,-1.47 0.388,-0.693 0.515,-1.534 0.285,-2.35 l -1.935,-6.868 c -0.231,-0.823 -0.776,-1.474 -1.466,-1.864 -0.693,-0.385 -1.534,-0.51 -2.355,-0.277 l -11.238,3.165 c -0.817,0.23 -1.467,0.777 -1.856,1.47 -0.389,0.694 -0.515,1.535 -0.286,2.351 l 1.935,6.868 c 0.233,0.825 0.774,1.475 1.46,1.859 l 0.014,0.009 C -1.662,0.109 -0.824,0.233 0,0 M 12.9,2.732 1.663,5.899 C -0.769,6.584 -3.268,6.211 -5.335,5.057 L -5.35,5.048 C -7.413,3.888 -9.035,1.951 -9.72,-0.479 l -1.935,-6.869 c -0.689,-2.444 -0.316,-4.947 0.839,-7.007 1.155,-2.062 3.094,-3.686 5.54,-4.374 l 11.238,-3.166 c 2.437,-0.688 4.936,-0.314 6.997,0.84 l 0.015,0.01 c 2.061,1.154 3.684,3.091 4.37,5.528 l 1.936,6.868 c 0.688,2.444 0.316,4.947 -0.84,7.007 -1.155,2.063 -3.094,3.686 -5.54,4.374"
             style="fill:#576667;fill-opacity:1;fill-rule:evenodd;stroke:none"
             id="path16225" />
        </g>
        <g
           id="g16227"
           transform="translate(345.0957,254.4111)">
          <path
             d="m 0,0 -11.239,-3.167 c -0.817,-0.23 -1.468,-0.775 -1.857,-1.47 -0.389,-0.693 -0.515,-1.534 -0.285,-2.35 l 1.935,-6.868 c 0.23,-0.823 0.776,-1.474 1.466,-1.864 0.694,-0.385 1.535,-0.51 2.355,-0.277 l 11.239,3.165 c 0.817,0.23 1.467,0.777 1.855,1.47 0.39,0.694 0.516,1.535 0.286,2.351 L 3.82,-2.142 C 3.589,-1.317 3.046,-0.667 2.361,-0.283 L 2.347,-0.274 C 1.662,0.109 0.824,0.233 0,0 m -12.902,2.732 11.24,3.167 C 0.769,6.584 3.268,6.211 5.333,5.057 L 5.349,5.048 C 7.412,3.888 9.034,1.951 9.72,-0.479 l 1.934,-6.869 c 0.689,-2.444 0.316,-4.947 -0.839,-7.007 -1.154,-2.062 -3.094,-3.686 -5.54,-4.374 l -11.238,-3.166 c -2.436,-0.688 -4.935,-0.314 -6.996,0.84 l -0.017,0.01 c -2.06,1.154 -3.681,3.091 -4.369,5.528 l -1.934,6.868 c -0.69,2.444 -0.318,4.947 0.838,7.007 1.155,2.063 3.094,3.686 5.539,4.374"
             style="fill:#576667;fill-opacity:1;fill-rule:evenodd;stroke:none"
             id="path16229" />
        </g>
        <g
           id="g16231"
           transform="translate(309.3379,248.7002)">
          <path
             d="m 0,0 h -11.676 c -0.848,0 -1.623,-0.351 -2.185,-0.913 -0.563,-0.563 -0.911,-1.337 -0.911,-2.186 v -7.135 c 0,-0.853 0.345,-1.628 0.905,-2.191 0.561,-0.558 1.337,-0.906 2.191,-0.906 H 0 c 0.849,0 1.623,0.351 2.185,0.911 0.562,0.564 0.912,1.337 0.912,2.186 v 7.135 c 0,0.858 -0.345,1.63 -0.901,2.186 L 2.185,-0.9 C 1.63,-0.347 0.856,0 0,0 M -11.676,6.128 H 0 c 2.525,0 4.829,-1.037 6.507,-2.708 L 6.518,3.408 c 1.671,-1.676 2.709,-3.98 2.709,-6.507 v -7.135 c 0,-2.539 -1.038,-4.848 -2.709,-6.519 C 4.849,-18.423 2.541,-19.46 0,-19.46 h -11.676 c -2.533,0 -4.836,1.037 -6.507,2.707 l -0.011,0.013 c -1.671,1.672 -2.709,3.974 -2.709,6.506 v 7.135 c 0,2.541 1.038,4.849 2.709,6.519 1.67,1.671 3.977,2.708 6.518,2.708"
             style="fill:#576667;fill-opacity:1;fill-rule:evenodd;stroke:none"
             id="path16233" />
        </g>
        <g
           id="g16235"
           transform="translate(273.3418,247.5459)">
          <path
             d="m 0,0 22.842,-2.639 c 1.95,-0.224 3.358,-2.004 3.134,-3.952 V -6.592 C 25.75,-8.541 23.973,-9.951 22.023,-9.727 l -22.842,2.639 c -1.949,0.225 -3.359,2.004 -3.134,3.952 v 0.001 C -3.728,-1.185 -1.95,0.225 0,0"
             style="fill:#404c4d;fill-opacity:1;fill-rule:evenodd;stroke:none"
             id="path16237" />
        </g>
        <g
           id="g16239"
           transform="translate(334.4453,247.5459)">
          <path
             d="m 0,0 -22.842,-2.639 c -1.948,-0.224 -3.358,-2.004 -3.134,-3.952 v -10e-4 c 0.226,-1.949 2.003,-3.359 3.953,-3.135 l 22.842,2.639 c 1.949,0.225 3.36,2.004 3.135,3.952 L 3.952,-3.135 C 3.728,-1.185 1.948,0.225 0,0"
             style="fill:#404c4d;fill-opacity:1;fill-rule:evenodd;stroke:none"
             id="path16241" />
        </g>
        <g
           id="g16243"
           transform="translate(236.1719,257.9756)">
          <path
             d="m 0,0 22.149,-6.175 c 1.891,-0.527 3.005,-2.505 2.478,-4.394 v -10e-4 c -0.527,-1.891 -2.504,-3.005 -4.394,-2.478 l -22.149,6.176 c -1.89,0.527 -3.004,2.503 -2.478,4.394 h 0.001 C -3.867,-0.588 -1.889,0.526 0,0"
             style="fill:#404c4d;fill-opacity:1;fill-rule:evenodd;stroke:none"
             id="path16245" />
        </g>
        <g
           id="g16247"
           transform="translate(370.0781,257.9756)">
          <path
             d="m 0,0 -22.147,-6.175 c -1.891,-0.527 -3.006,-2.505 -2.479,-4.394 v -10e-4 c 0.527,-1.891 2.504,-3.005 4.394,-2.478 l 22.149,6.176 c 1.891,0.527 3.005,2.503 2.478,4.394 v 0 C 3.868,-0.588 1.892,0.526 0,0"
             style="fill:#404c4d;fill-opacity:1;fill-rule:evenodd;stroke:none"
             id="path16249" />
        </g>
        <g
           id="g16251"
           transform="translate(232.1162,292.8037)">
          <path
             d="m 0,0 c 4.115,-14.282 -9.598,-25.856 0.43,-37.87 5.678,5.941 11.426,-1.462 15.217,-1.391 7.094,-2.114 6.004,-5.457 2.491,-9.165 2.391,0.323 5.165,-1.007 7.031,-2.789 2.958,-2.83 2.505,-9.479 2.39,-15.166 -0.131,-6.452 -11.811,-5.209 -17.715,-7.813 -5.031,-2.218 -10.516,-1.457 -14.752,2.047 -8.04,6.65 -16.078,13.3 -24.118,19.952 -10.231,19.486 -11.361,43.016 -9.021,68.089 C -25.365,10.595 -12.682,5.298 0,0"
             style="fill:#fbc589;fill-opacity:1;fill-rule:evenodd;stroke:none"
             id="path16253" />
        </g>
        <path
           d="m 187.796,290.194 h 50.396 v 18.951 h -50.396 z"
           style="fill:#f9efe7;fill-opacity:1;fill-rule:evenodd;stroke:none"
           id="path16255" />
        <path
           d="m 187.796,303.956 h 50.396 v 5.189 h -50.396 z"
           style="fill:#eddfd4;fill-opacity:1;fill-rule:evenodd;stroke:none"
           id="path16257" />
        <g
           id="g16259"
           transform="translate(198.1475,246.6309)">
          <path
             d="M 0,0 31.183,19.26 36.983,9.871 5.8,-9.391 Z"
             style="fill:#576667;fill-opacity:1;fill-rule:evenodd;stroke:none"
             id="path16261" />
        </g>
        <g
           id="g16263"
           transform="translate(374.1348,292.8037)">
          <path
             d="m 0,0 c -4.114,-14.282 9.6,-25.856 -0.43,-37.87 -5.678,5.941 -11.425,-1.462 -15.217,-1.391 -7.093,-2.114 -6.003,-5.457 -2.491,-9.165 -2.389,0.323 -5.165,-1.007 -7.031,-2.789 -2.958,-2.83 -2.504,-9.479 -2.389,-15.166 0.132,-6.452 11.811,-5.209 17.715,-7.813 5.031,-2.218 10.516,-1.457 14.751,2.047 8.04,6.65 16.08,13.3 24.118,19.952 10.231,19.486 11.362,43.016 9.022,68.089 C 25.366,10.595 12.683,5.298 0,0"
             style="fill:#fbc589;fill-opacity:1;fill-rule:evenodd;stroke:none"
             id="path16265" />
        </g>
        <path
           d="m 368.06,290.194 h 50.397 v 18.951 H 368.06 Z"
           style="fill:#f9efe7;fill-opacity:1;fill-rule:evenodd;stroke:none"
           id="path16267" />
        <path
           d="m 368.06,303.956 h 50.397 v 5.189 H 368.06 Z"
           style="fill:#eddfd4;fill-opacity:1;fill-rule:evenodd;stroke:none"
           id="path16269" />
        <g
           id="g16271"
           transform="translate(408.1045,246.6309)">
          <path
             d="M 0,0 -31.184,19.26 -36.983,9.871 -5.8,-9.391 Z"
             style="fill:#576667;fill-opacity:1;fill-rule:evenodd;stroke:none"
             id="path16273" />
        </g>
        <g
           id="g16275"
           transform="translate(334.3672,477.4102)">
          <path
             d="m 0,0 c 0,-15.814 -14.175,-49.667 -31.658,-49.667 -17.483,0 -31.657,33.853 -31.657,49.667 z"
             style="fill:#f9efe7;fill-opacity:1;fill-rule:evenodd;stroke:none"
             id="path16277" />
        </g>
        <g
           id="g16279"
           transform="translate(269.603,119.9863)">
          <path
             d="m 0,0 v -25.023 h -72.053 c -4.045,18.34 0.928,29.844 29.107,23.74 C -28.631,-0.855 -14.315,-0.427 0,0"
             style="fill:#576667;fill-opacity:1;fill-rule:evenodd;stroke:none"
             id="path16281" />
        </g>
        <g
           id="g16283"
           transform="translate(336.6484,119.9863)">
          <path
             d="M 0,0 V -25.023 H 72.054 C 76.098,-6.683 71.125,4.821 42.946,-1.283 28.631,-0.855 14.315,-0.427 0,0"
             style="fill:#576667;fill-opacity:1;fill-rule:evenodd;stroke:none"
             id="path16285" />
        </g>
        <g
           id="g16287"
           transform="translate(269.4888,548.7905)">
          <path
             d="M 0,0 V 0 C 22.748,0 41.71,-15.658 46.483,-37.807 L 64.878,-71.38 H 44.12 v 0.005 C 37.119,-88.897 19.946,-101.361 0,-101.361 v 0 c -26.114,0 -47.479,21.365 -47.479,47.479 v 6.403 C -47.479,-21.365 -26.114,0 0,0"
             style="fill:#fbc589;fill-opacity:1;fill-rule:evenodd;stroke:none"
             id="path16289" />
        </g>
        <g
           id="g16291"
           transform="translate(307.7383,466.8662)">
          <path
             d="m 0,0 c -8.664,-11.766 -22.603,-19.436 -38.249,-19.436 v 0 c -11.581,0 -22.225,4.203 -30.489,11.158 3.473,4.894 4.79,12.612 10.424,14.68 9.253,3.396 20.349,-3.481 29.571,0 11.816,4.459 17.131,28.361 20.825,39.151 C 0.399,30.368 2.787,15.184 0,0"
             style="fill:#cfb89e;fill-opacity:1;fill-rule:evenodd;stroke:none"
             id="path16293" />
        </g>
        <g
           id="g16295"
           transform="translate(252.501,457.6646)">
          <path
             d="m 0,0 c -1.061,-1.884 -3.45,-2.552 -5.334,-1.491 -1.885,1.061 -2.552,3.449 -1.492,5.334 1.737,3.08 5.531,4.746 10.533,5.581 4.08,0.681 9.202,0.881 14.634,0.937 2.165,0.017 3.934,-1.725 3.951,-3.89 C 22.309,4.307 20.567,2.538 18.403,2.521 13.379,2.469 8.668,2.287 4.999,1.676 2.254,1.218 0.382,0.677 0,0"
             style="fill:#e08894;fill-opacity:1;fill-rule:evenodd;stroke:none"
             id="path16297" />
        </g>
        <g
           id="g16299"
           transform="translate(232.7568,489.8477)">
          <path
             d="M 0,0 C 2.062,1.143 5.135,-0.458 6.864,-3.576 8.593,-6.694 8.323,-10.148 6.26,-11.292 4.199,-12.435 1.126,-10.834 -0.603,-7.716 -2.332,-4.598 -2.062,-1.144 0,0"
             style="fill:#2f2d2d;fill-opacity:1;fill-rule:evenodd;stroke:none"
             id="path16301" />
        </g>
        <g
           id="g16303"
           transform="translate(256.0181,498.5938)">
          <path
             d="m 0,0 c 3.156,1.143 6.405,-0.458 7.256,-3.576 0.852,-3.118 -1.015,-6.572 -4.172,-7.716 -3.156,-1.143 -6.404,0.459 -7.256,3.576 C -5.023,-4.598 -3.156,-1.143 0,0"
             style="fill:#2f2d2d;fill-opacity:1;fill-rule:evenodd;stroke:none"
             id="path16305" />
        </g>
        <g
           id="g16307"
           transform="translate(306.2822,510.9839)">
          <path
             d="m 0,0 c 5.338,0 9.69,5.211 9.69,11.599 0,6.388 -4.352,11.599 -9.69,11.599 -5.337,0 -9.688,-5.211 -9.688,-11.599 C -9.688,5.211 -5.337,0 0,0"
             style="fill:#fbc589;fill-opacity:1;fill-rule:evenodd;stroke:none"
             id="path16309" />
        </g>
        <g
           id="g16311"
           transform="translate(236.6704,485.1392)">
          <path
             d="M 0,0 C 0.831,0 1.51,0.678 1.51,1.509 1.51,2.34 0.831,3.019 0,3.019 -0.832,3.019 -1.51,2.34 -1.51,1.509 -1.51,0.678 -0.832,0 0,0"
             style="fill:#e8e8e7;fill-opacity:1;fill-rule:evenodd;stroke:none"
             id="path16313" />
        </g>
        <g
           id="g16315"
           transform="translate(238.1021,482.1177)">
          <path
             d="M 0,0 C 0.588,0 1.068,0.48 1.068,1.068 1.068,1.657 0.588,2.137 0,2.137 -0.588,2.137 -1.068,1.657 -1.068,1.068 -1.068,0.48 -0.588,0 0,0"
             style="fill:#e8e8e7;fill-opacity:1;fill-rule:evenodd;stroke:none"
             id="path16317" />
        </g>
        <g
           id="g16319"
           transform="translate(261.2183,492.8438)">
          <path
             d="M 0,0 C 1.046,0 1.9,0.854 1.9,1.9 1.9,2.947 1.046,3.8 0,3.8 -1.047,3.8 -1.901,2.947 -1.901,1.9 -1.901,0.854 -1.047,0 0,0"
             style="fill:#e8e8e7;fill-opacity:1;fill-rule:evenodd;stroke:none"
             id="path16321" />
        </g>
        <g
           id="g16323"
           transform="translate(261.0093,490.1357)">
          <path
             d="M 0,0 C 0.473,0 0.86,0.386 0.86,0.859 0.86,1.333 0.473,1.718 0,1.718 -0.472,1.718 -0.859,1.333 -0.859,0.859 -0.859,0.386 -0.472,0 0,0"
             style="fill:#e8e8e7;fill-opacity:1;fill-rule:evenodd;stroke:none"
             id="path16325" />
        </g>
      </g>
    </g>
  </g>
</svg>
